<?xml version="1.0" encoding="UTF-8"?>
<svg id="Layer_2" data-name="Layer 2" xmlns="http://www.w3.org/2000/svg" xmlns:xlink="http://www.w3.org/1999/xlink" viewBox="0 0 396.52 110.25">
  <defs>
    <style>
      .cls-1 {
        fill: url(#linear-gradient-2);
      }

      .cls-2 {
        fill: url(#linear-gradient);
      }

      .cls-3 {
        fill: #fff;
        font-family: TangoSans, TangoSans;
        font-size: 72px;
      }
    </style>
    <linearGradient id="linear-gradient" x1="62.16" y1="94.4" x2="133.4" y2="81.97" gradientTransform="translate(34.47 -65.59) rotate(30) scale(.47 1)" gradientUnits="userSpaceOnUse">
      <stop offset=".05" stop-color="#5ef"/>
      <stop offset=".84" stop-color="#5467ed"/>
    </linearGradient>
    <linearGradient id="linear-gradient-2" x1="291.11" y1="-270.28" x2="361.83" y2="-282.62" gradientTransform="translate(313.45 -70.62) rotate(-147.18) scale(.47 1)" xlink:href="#linear-gradient"/>
  </defs>
  <g id="Layer_1-2" data-name="Layer 1">
    <text class="cls-3" transform="translate(92.2 80.38)"><tspan x="0" y="0">hyperion</tspan></text>
    <path class="cls-2" d="M50.56,.61L.61,50.09c-.97,.96-.76,2.58,.42,3.27l32.07,18.51c1.18,.68,2.69,.05,3.04-1.27L54.02,2.61c.54-2.04-1.96-3.48-3.46-2Z"/>
    <path class="cls-1" d="M13.27,109.58l50.48-45.31c1.26-1.13,1.1-3.15-.32-4.07l-30.03-19.36c-1.42-.92-3.33-.23-3.84,1.38L9.11,106.9c-.79,2.49,2.22,4.43,4.16,2.69Z"/>
  </g>
</svg>